<svg width="198" height="69" viewBox="0 0 494 172" fill="none" xmlns="http://www.w3.org/2000/svg">
<g clip-path="url(#clip0_56_457)">
<path fill-rule="evenodd" clip-rule="evenodd" d="M66.7541 55.7558C67.4035 52.5374 68.091 49.1303 66.6921 46.2254C64.9031 42.5105 60.6478 40.8205 56.5371 40.4987C49.5749 39.9536 43.0818 35.8227 39.8335 29.0774C34.9749 18.9885 39.215 6.87115 49.3039 2.01257C59.3928 -2.846 71.5102 1.39405 76.3688 11.483C79.6573 18.3116 78.7775 26.0696 74.7371 31.877C72.3834 35.2601 71.022 39.6398 72.8102 43.353C74.2085 46.2568 77.3136 47.8305 80.2369 49.312C80.54 49.4657 80.8411 49.6183 81.1382 49.7713C83.0285 50.7449 84.6293 52.3189 85.623 54.3823C88.0522 59.4267 85.9322 65.4854 80.8878 67.9147C75.8433 70.344 69.7846 68.224 67.3553 63.1795C66.3721 61.1377 66.1341 58.9298 66.5337 56.8636C66.6045 56.4976 66.679 56.128 66.7541 55.7558ZM102.725 43.293C101.326 46.1979 98.234 47.7847 95.3129 49.2837L95.3127 49.2837L95.3126 49.2838L95.3124 49.2839L95.3123 49.284L95.3122 49.284C94.9746 49.4572 94.6394 49.6293 94.3093 49.802C92.4448 50.7778 90.8669 52.3405 89.8837 54.3823C87.4544 59.4267 89.5744 65.4854 94.6189 67.9147C99.6633 70.344 105.722 68.224 108.151 63.1795C109.145 61.1162 109.377 58.8832 108.96 56.7983C108.895 56.4708 108.826 56.1404 108.757 55.8078L108.757 55.8073C108.093 52.5981 107.387 49.1892 108.786 46.2855C110.574 42.5723 114.847 40.906 118.959 40.6368C126.019 40.1748 132.633 36.0257 135.921 29.197C140.78 19.1081 136.54 6.99072 126.451 2.13215C116.362 -2.72643 104.245 1.51362 99.3861 11.6026C96.1378 18.3478 96.9565 25.9998 100.871 31.783C103.183 35.1975 104.514 39.5781 102.725 43.293ZM91.1326 124.469C91.1326 121.245 93.2303 118.474 95.2118 115.856C95.4409 115.553 95.6685 115.253 95.8911 114.953C97.1475 113.265 97.8911 111.173 97.8911 108.907C97.8911 103.308 93.3523 98.7688 87.7533 98.7688C82.1544 98.7688 77.6156 103.308 77.6156 108.907C77.6156 111.197 78.3749 113.309 79.6556 115.007C79.8568 115.273 80.0618 115.541 80.2681 115.811L80.2684 115.812L80.2685 115.812C82.2593 118.415 84.3741 121.18 84.3741 124.403C84.3741 128.524 81.2472 131.879 77.6587 133.906C71.4987 137.386 67.34 143.993 67.34 151.573C67.34 162.771 76.4177 171.848 87.6156 171.848C98.8134 171.848 107.891 162.771 107.891 151.573C107.891 144.086 103.833 137.547 97.7972 134.035C94.2332 131.962 91.1326 128.593 91.1326 124.469ZM128.645 70.0461C125.501 70.7635 122.333 69.3351 119.34 67.9858L119.339 67.9854C118.993 67.8296 118.649 67.6747 118.309 67.5244C116.383 66.6751 114.178 66.4158 111.968 66.9201C106.51 68.1659 103.095 73.601 104.341 79.0595C105.586 84.5181 111.021 87.9331 116.48 86.6873C118.713 86.1777 120.603 84.9672 121.973 83.341C122.189 83.0854 122.404 82.8258 122.622 82.5644L122.622 82.5644C124.716 80.0442 126.942 77.3671 130.084 76.65C134.102 75.7329 138.069 78.0348 140.843 81.0823C145.606 86.3136 152.974 88.8976 160.363 87.2111C171.28 84.7193 178.11 73.8493 175.618 62.9321C173.127 52.015 162.257 45.1849 151.339 47.6767C144.04 49.3426 138.568 54.7537 136.488 61.42C135.259 65.356 132.665 69.1286 128.645 70.0461ZM53.411 82.5286C51.2997 80.0142 49.0645 77.3525 45.9212 76.635C41.9013 75.7175 37.9269 77.9907 35.1123 81.0039C30.3452 86.1073 23.0673 88.6082 15.7683 86.9423C4.85114 84.4505 -1.97897 73.5805 0.512797 62.6634C3.00456 51.7462 13.8746 44.9161 24.7917 47.4079C32.1809 49.0944 37.6978 54.6192 39.7191 61.399C40.8966 65.3485 43.472 69.1437 47.49 70.0608C50.6321 70.7779 53.7985 69.3315 56.7794 67.9697L56.7801 67.9694C57.0889 67.8283 57.3958 67.6881 57.7004 67.5514C59.6402 66.6805 61.8689 66.4103 64.1016 66.9199C69.5602 68.1658 72.9753 73.6008 71.7294 79.0594C70.4835 84.518 65.0485 87.933 59.5899 86.6871C57.3805 86.1829 55.5059 84.9923 54.1397 83.3917C53.8976 83.1081 53.6552 82.8193 53.411 82.5286ZM122.303 105.83C119.782 103.82 118.924 100.452 118.112 97.2703C118.018 96.9025 117.925 96.5371 117.83 96.1766C117.294 94.1417 116.121 92.2557 114.35 90.8427C109.972 87.3518 103.594 88.0705 100.103 92.448C96.6119 96.8254 97.3306 103.204 101.708 106.695C103.498 108.123 105.624 108.846 107.749 108.903C108.083 108.912 108.421 108.919 108.76 108.926H108.761C112.037 108.992 115.518 109.063 118.037 111.073C121.26 113.642 121.933 118.179 121.28 122.248C120.16 129.234 122.733 136.605 128.659 141.33C137.414 148.312 150.171 146.875 157.153 138.12C164.134 129.365 162.697 116.608 153.942 109.626C148.089 104.958 140.447 104.054 133.937 106.584C130.094 108.077 125.527 108.401 122.303 105.83ZM66.6948 108.933C63.4126 109.016 59.9379 109.104 57.4172 111.114C54.1935 113.685 53.4928 118.209 54.0937 122.289C55.1115 129.198 52.5291 136.447 46.6757 141.115C37.9209 148.097 25.1638 146.659 18.1821 137.904C11.2003 129.15 12.6377 116.393 21.3925 109.411C27.3182 104.685 35.0774 103.817 41.6383 106.463C45.4603 108.005 50.0332 108.358 53.2554 105.788C55.7752 103.779 56.6185 100.402 57.4124 97.2219C57.4947 96.8923 57.5765 96.5647 57.6596 96.241C58.1881 94.1815 59.3665 92.2705 61.157 90.8427C65.5344 87.3518 71.9129 88.0705 75.4038 92.4479C78.8947 96.8253 78.176 103.204 73.7986 106.695C72.0268 108.108 69.9272 108.831 67.8239 108.901C67.4513 108.914 67.0743 108.923 66.6948 108.933Z" fill="#7300E5"/>
<path d="M443.417 134.212C434.743 134.212 429.674 130.777 428.323 125.37L434.293 122.723C434.743 127.172 438.066 129.481 443.417 129.481C447.922 129.481 450.401 127.792 450.401 125.483C450.401 118.724 429.336 123.849 429.336 112.416C429.336 106.784 434.856 103.123 442.572 103.123C450.401 103.123 455.244 106.559 456.483 111.628L450.626 113.881C450.344 110.22 447.641 107.798 442.516 107.798C437.728 107.798 435.588 109.713 435.588 111.909C435.588 118.33 456.877 113.43 456.877 125.032C456.877 130.833 451.583 134.212 443.417 134.212Z" fill="black"/>
<path d="M411.924 134.212C402.632 134.212 398.745 128.749 398.745 121.146V109.15H390.185V104.081H398.745V97.5474L404.603 93.0981V104.081H422.457V109.15H404.603V120.583C404.603 125.483 406.856 128.975 411.981 128.975C416.205 128.975 418.965 126.665 420.204 121.259L424.991 124.638C422.851 131.058 418.063 134.212 411.924 134.212Z" fill="black"/>
<path d="M373.279 134.212C363.705 134.212 357.228 127.961 357.228 118.78C357.228 109.713 363.761 103.123 372.885 103.123C382.066 103.123 388.148 109.262 388.148 118.217C388.148 118.949 388.092 119.682 387.979 120.583H363.423C364.099 126.496 368.042 129.2 373.448 129.2C378.123 129.2 381.052 127.51 382.91 123.737L387.529 127.398C384.262 131.903 379.362 134.212 373.279 134.212ZM363.48 116.19H381.84C381.84 111.177 378.067 108.079 372.716 108.079C368.098 108.079 364.381 110.727 363.48 116.19Z" fill="black"/>
<path d="M323.596 133.368V128.299H332.945V109.15H323.99V104.081H338.802V109.262C341.337 104.644 345.899 103.461 349.222 103.461C350.348 103.461 351.08 103.517 352.15 103.743V109.656C350.968 109.375 349.954 109.206 348.546 109.206C342.97 109.206 338.802 112.191 338.802 119.175V128.299H351.024V133.368H323.596Z" fill="black"/>
<path d="M303.818 134.212C294.187 134.212 287.654 127.904 287.654 118.78C287.654 109.544 294.413 103.123 303.931 103.123C310.464 103.123 315.533 106.39 317.955 111.121L312.83 114.218C311.422 110.501 308.211 108.474 303.987 108.474C297.848 108.474 293.906 112.472 293.906 118.724C293.906 124.919 297.736 128.862 303.931 128.862C308.324 128.862 311.309 126.609 312.83 123.117L317.955 126.215C315.42 131.002 310.464 134.212 303.818 134.212Z" fill="black"/>
<path d="M268.496 134.212C258.922 134.212 252.445 127.961 252.445 118.78C252.445 109.713 258.978 103.123 268.102 103.123C277.282 103.123 283.365 109.262 283.365 118.217C283.365 118.949 283.309 119.682 283.196 120.583H258.64C259.316 126.496 263.258 129.2 268.665 129.2C273.34 129.2 276.268 127.51 278.127 123.737L282.745 127.398C279.479 131.903 274.579 134.212 268.496 134.212ZM258.696 116.19H277.057C277.057 111.177 273.283 108.079 267.933 108.079C263.315 108.079 259.597 110.727 258.696 116.19Z" fill="black"/>
<path d="M233.512 134.212C224.557 134.212 217.967 129.312 216.954 121.146L222.698 118.386C222.698 124.807 226.641 128.975 233.512 128.975C239.144 128.975 243.143 126.327 243.143 122.103C243.143 110.896 217.911 119.4 217.911 103.18C217.911 95.6325 225.008 91.0142 233.174 91.0142C242.298 91.0142 248.099 96.3647 248.775 102.785L243.199 105.151C243.199 99.9692 239.369 96.2521 233.174 96.2521C227.88 96.2521 224.05 98.6739 224.05 102.785C224.05 113.261 249.338 105.207 249.338 121.765C249.338 129.65 242.58 134.212 233.512 134.212Z" fill="black"/>
<path d="M462.406 77.3676V72.2987H475.078V41.0405H463.025V35.9717H480.935V72.2987H493.213V77.3676H462.406Z" fill="black"/>
<path d="M439.531 78.2124C433.11 78.2124 428.999 75.0021 428.999 69.7642C428.999 64.7517 432.49 62.1046 439.756 60.9218C448.992 59.4575 450.232 59.0069 450.232 56.3035C450.232 53.4312 447.472 51.7979 443.191 51.7979C437.897 51.7979 434.8 54.5576 434.8 58.6127L429.505 56.5851C430.294 50.7841 435.757 47.1232 443.417 47.1232C451.752 47.1232 455.976 50.7278 455.976 57.092V71.7355L456.934 77.3676H451.752L450.457 73.5941C448.26 76.5228 444.543 78.2124 439.531 78.2124ZM440.939 73.6504C446.852 73.6504 450.232 70.1585 450.232 65.5965V62.6115C449.33 63.4 447.528 63.8505 440.939 64.9206C437.052 65.5965 435.194 66.6103 435.194 69.4263C435.194 71.7355 436.883 73.6504 440.939 73.6504Z" fill="black"/>
<path d="M393.902 77.3676V48.0807H399.759V52.3611C401.843 49.0381 405.053 47.1232 409.841 47.1232C417.219 47.1232 421.668 52.2484 421.668 60.1334V77.3676H415.811V60.8655C415.811 55.515 413.333 52.1921 408.489 52.1921C402.969 52.1921 399.759 56.1909 399.759 62.2172V77.3676H393.902Z" fill="black"/>
<path d="M358.523 77.3676V72.2987H367.873V53.1496H358.918V48.0807H373.73V53.2622C376.265 48.6439 380.827 47.4611 384.149 47.4611C385.276 47.4611 386.008 47.5175 387.078 47.7427V53.6564C385.895 53.3748 384.882 53.2059 383.474 53.2059C377.898 53.2059 373.73 56.1909 373.73 63.1747V72.2987H385.952V77.3676H358.523Z" fill="black"/>
<path d="M338.352 78.2124C328.777 78.2124 322.3 71.9608 322.3 62.7804C322.3 53.7128 328.833 47.1232 337.957 47.1232C347.138 47.1232 353.22 53.2622 353.22 62.2172C353.22 62.9494 353.164 63.6816 353.051 64.5827H328.496C329.171 70.4964 333.114 73.1998 338.521 73.1998C343.195 73.1998 346.124 71.5102 347.983 67.7367L352.601 71.3975C349.334 75.9032 344.434 78.2124 338.352 78.2124ZM328.552 60.1897H346.913C346.913 55.1771 343.139 52.0795 337.789 52.0795C333.17 52.0795 329.453 54.7265 328.552 60.1897Z" fill="black"/>
<path d="M307.141 78.2124C297.848 78.2124 293.962 72.7493 293.962 65.1459V53.1496H285.401V48.0807H293.962V41.5474L299.819 37.0981V48.0807H317.673V53.1496H299.819V64.5827C299.819 69.4826 302.072 72.9745 307.197 72.9745C311.421 72.9745 314.181 70.6654 315.42 65.2586L320.208 68.6378C318.067 75.0584 313.28 78.2124 307.141 78.2124Z" fill="black"/>
<path d="M275.93 77.3676L267.989 66.9482L259.71 77.3676H252.219L264.497 62.4425L253.177 48.0807H260.499L268.215 58.2184L276.437 48.0807H283.815L271.706 62.6678L283.421 77.3676H275.93Z" fill="black"/>
<path d="M219.657 77.3676V35.9717H246.86V41.4348H225.74V53.7128H245.283V59.1196H225.74V71.9044H246.973V77.3676H219.657Z" fill="black"/>
</g>
<defs>
<clipPath id="clip0_56_457">
<rect width="494" height="172" fill="white"/>
</clipPath>
</defs>
</svg>
