<?xml version="1.0" encoding="UTF-8"?><svg xmlns="http://www.w3.org/2000/svg" viewBox="0 0 198.04 173.87"><defs><style>.e,.f,.g{fill:#fff;}.f,.h,.i{stroke-width:4px;}.f,.h,.i,.g,.j{stroke:#fff;}.f,.h,.i,.j{stroke-linecap:round;}.h,.i,.j{fill:none;}.i,.j{stroke-linejoin:round;}.g{stroke-miterlimit:10;}.k{opacity:.15;}.j{stroke-width:3px;}</style></defs><g id="a"/><g id="b"><g id="c"><g><g id="d" class="k"><path class="e" d="M188.14,141.59c-16.22-5.69-32.44-11.38-48.81-17.12,3.35,9.2,6.66,18.27,9.96,27.34l-.08,.06c-5.03-3.99-10.06-7.98-15.23-12.07,.45,11.39,.89,22.65,1.34,34.08-9.21-12.79-18.33-25.46-27.53-38.24-3.61,9.39-7.19,18.68-10.76,27.97h-.11c-1.47-6.23-2.94-12.46-4.45-18.84-7.32,9.39-14.55,18.68-21.79,27.97l-.09-.03c1.16-14.32,2.32-28.64,3.49-43.13-9.19,5.69-18.25,11.31-27.32,16.93l-.09-.06c3.35-6.39,6.69-12.79,10.04-19.18l-.06-.12c-12.53,3.95-25.07,7.89-37.6,11.84l-.04-.07c10.17-10.51,20.34-21.02,30.62-31.64-10.75-.08-21.35-.15-31.95-.23l-.04-.08c7.69-3.79,15.38-7.58,23.08-11.37v-.13c-13.53-3.37-27.05-6.75-40.72-10.16,14.97-3.23,29.8-6.44,44.62-9.64l.04-.13c-7.91-5.07-15.81-10.13-23.72-15.2l.02-.12c9.18,.9,18.37,1.79,27.55,2.69l.08-.11c-9.11-10.13-18.21-20.26-27.32-30.39l.07-.11,42.17,14.79-8.36-22.95,.09-.08c6.79,5.38,13.57,10.76,20.5,16.25-.53-13.48-1.05-26.8-1.58-40.29,8.28,11.5,16.47,22.88,24.73,34.36,2.86-7.43,5.68-14.75,8.49-22.08h.11c1.74,7.38,3.49,14.76,5.27,22.28,8.73-11.21,17.38-22.31,26.03-33.42l.09,.03c-1.13,13.92-2.25,27.85-3.39,41.94,7.48-4.63,14.83-9.19,22.19-13.75l.07,.07c-3.27,6.25-6.54,12.5-9.88,18.87,14.27-4.49,28.4-8.94,42.53-13.39l.06,.07c-10.81,11.17-21.63,22.35-32.44,33.52l.02,.15c9.57,.06,19.14,.13,28.71,.19l.04,.08c-6.23,3.07-12.46,6.13-18.69,9.2v.12c13.75,3.43,29.94,11.24,29.94,11.24,0,0-22.44,6.41-39.49,10.09,8.39,5.38,16.66,10.68,24.93,15.98l-.03,.12c-6.67-.65-13.35-1.3-20.02-1.95l-.08,.12,24.85,27.64-.07,.11Z"/></g><path class="h" d="M105.44,40.02c4.91,0,8.9,3.98,8.9,8.9"/><path class="i" d="M80.68,57.3c0-12.66,10.26-22.92,22.92-22.92s22.92,10.26,22.92,22.92"/><g><path class="e" d="M97.07,93.26c-.21,.29-.43,.43-.65,.43s-.44-.1-.66-.29c-.22-.19-.33-.38-.33-.56s.09-.37,.26-.56l1.61-2.26-2.15-.69c-.42-.13-.63-.35-.63-.66,0-.17,.03-.32,.09-.46,.11-.4,.35-.6,.72-.6,.08,0,.21,.02,.4,.06l2.21,.72v-2.35c0-.57,.29-.86,.86-.86s.86,.29,.86,.86v2.35l2.15-.72c.19-.04,.35-.06,.49-.06s.29,.1,.46,.29c.17,.19,.26,.44,.26,.76s-.21,.54-.63,.67l-2.18,.69,1.63,2.26c.15,.17,.23,.35,.23,.54s-.11,.38-.33,.57c-.22,.19-.43,.29-.64,.29s-.42-.14-.63-.43l-1.69-2.38-1.69,2.38Z"/><path class="e" d="M87.39,93.26c-.21,.29-.43,.43-.65,.43s-.44-.1-.66-.29c-.22-.19-.33-.38-.33-.56s.09-.37,.26-.56l1.61-2.26-2.15-.69c-.42-.13-.63-.35-.63-.66,0-.17,.03-.32,.09-.46,.11-.4,.35-.6,.72-.6,.08,0,.21,.02,.4,.06l2.21,.72v-2.35c0-.57,.29-.86,.86-.86s.86,.29,.86,.86v2.35l2.15-.72c.19-.04,.35-.06,.49-.06s.29,.1,.46,.29c.17,.19,.26,.44,.26,.76s-.21,.54-.63,.67l-2.18,.69,1.63,2.26c.15,.17,.23,.35,.23,.54s-.11,.38-.33,.57c-.22,.19-.43,.29-.64,.29s-.42-.14-.63-.43l-1.69-2.38-1.69,2.38Z"/><path class="e" d="M106.75,93.26c-.21,.29-.43,.43-.65,.43s-.44-.1-.66-.29c-.22-.19-.33-.38-.33-.56s.09-.37,.26-.56l1.61-2.26-2.15-.69c-.42-.13-.63-.35-.63-.66,0-.17,.03-.32,.09-.46,.11-.4,.35-.6,.72-.6,.08,0,.21,.02,.4,.06l2.21,.72v-2.35c0-.57,.29-.86,.86-.86s.86,.29,.86,.86v2.35l2.15-.72c.19-.04,.35-.06,.49-.06s.29,.1,.46,.29c.17,.19,.26,.44,.26,.76s-.21,.54-.63,.67l-2.18,.69,1.63,2.26c.15,.17,.23,.35,.23,.54s-.11,.38-.33,.57c-.22,.19-.43,.29-.64,.29s-.42-.14-.63-.43l-1.69-2.38-1.69,2.38Z"/><path class="e" d="M116.42,93.26c-.21,.29-.43,.43-.65,.43s-.44-.1-.66-.29c-.22-.19-.33-.38-.33-.56s.09-.37,.26-.56l1.61-2.26-2.15-.69c-.42-.13-.63-.35-.63-.66,0-.17,.03-.32,.09-.46,.11-.4,.35-.6,.72-.6,.08,0,.21,.02,.4,.06l2.21,.72v-2.35c0-.57,.29-.86,.86-.86s.86,.29,.86,.86v2.35l2.15-.72c.19-.04,.35-.06,.49-.06s.29,.1,.46,.29c.17,.19,.26,.44,.26,.76s-.21,.54-.63,.67l-2.18,.69,1.63,2.26c.15,.17,.23,.35,.23,.54s-.11,.38-.33,.57c-.22,.19-.43,.29-.64,.29s-.42-.14-.63-.43l-1.69-2.38-1.69,2.38Z"/></g><rect class="j" x="78.38" y="81.97" width="50.43" height="14.93" rx=".87" ry=".87"/><g><path class="h" d="M51.98,95.93c0-4.91,3.98-8.9,8.9-8.9"/><path class="h" d="M45.76,103.05c0-3.43,2.78-6.22,6.22-6.22s6.22,2.78,6.22,6.22"/><line class="i" x1="65.12" y1="78.41" x2="65.12" y2="97.16"/></g><g><path class="h" d="M155.13,95.93c0-4.91-3.98-8.9-8.9-8.9"/><path class="h" d="M161.35,103.05c0-3.43-2.78-6.22-6.22-6.22s-6.22,2.78-6.22,6.22"/><line class="i" x1="141.99" y1="78.41" x2="141.99" y2="97.16"/></g><g><circle class="g" cx="103.6" cy="13.8" r="4.3"/><line class="f" x1="103.6" y1="15.54" x2="103.6" y2="34.49"/></g><g><polyline class="i" points="100.06 115.84 71.11 116.14 71.11 62.73 136 62.73 136 116.14 111.69 115.9"/><polygon class="e" points="112.89 111.92 105.95 115.84 112.82 119.9 112.89 111.92"/></g></g></g></g></svg>